<?xml version="1.0" encoding="UTF-8" standalone="no"?>
<!-- Created with Inkscape (http://www.inkscape.org/) -->

<svg
   xmlns:dc="http://purl.org/dc/elements/1.1/"
   xmlns:cc="http://creativecommons.org/ns#"
   xmlns:rdf="http://www.w3.org/1999/02/22-rdf-syntax-ns#"
   xmlns:svg="http://www.w3.org/2000/svg"
   xmlns="http://www.w3.org/2000/svg"
   xmlns:sodipodi="http://sodipodi.sourceforge.net/DTD/sodipodi-0.dtd"
   xmlns:inkscape="http://www.inkscape.org/namespaces/inkscape"
   width="1000"
   height="1000"
   viewBox="0 0 1000 1000"
   id="svg2"
   version="1.1"
   inkscape:version="0.91 r13725"
   sodipodi:docname="greenOrbit.svg"
   inkscape:export-filename="/home/keidaroo/デスクトップ/drawings/planet/png/planetGreenColorChange.png"
   inkscape:export-xdpi="94.810516"
   inkscape:export-ydpi="94.810516">
  <defs
     id="defs4">
    <clipPath
       clipPathUnits="userSpaceOnUse"
       id="clipPath4148">
      <circle
         r="1182.8572"
         cy="1069.505"
         cx="382.85715"
         id="circle4150"
         style="opacity:1;fill:#62af41;fill-opacity:1;stroke:none;stroke-width:1;stroke-miterlimit:4;stroke-dasharray:none;stroke-dashoffset:0;stroke-opacity:1" />
    </clipPath>
    <clipPath
       clipPathUnits="userSpaceOnUse"
       id="clipPath4154">
      <circle
         r="1182.8572"
         cy="1069.505"
         cx="382.85715"
         id="circle4156"
         style="opacity:1;fill:#62af41;fill-opacity:1;stroke:none;stroke-width:1;stroke-miterlimit:4;stroke-dasharray:none;stroke-dashoffset:0;stroke-opacity:1" />
    </clipPath>
    <clipPath
       clipPathUnits="userSpaceOnUse"
       id="clipPath4166">
      <circle
         r="1182.8572"
         cy="1069.505"
         cx="382.85715"
         id="circle4168"
         style="opacity:1;fill:#62af41;fill-opacity:1;stroke:none;stroke-width:1;stroke-miterlimit:4;stroke-dasharray:none;stroke-dashoffset:0;stroke-opacity:1" />
    </clipPath>
    <clipPath
       clipPathUnits="userSpaceOnUse"
       id="clipPath4174">
      <circle
         r="1182.8572"
         cy="1069.505"
         cx="382.85715"
         id="circle4176"
         style="opacity:1;fill:#6ea748;fill-opacity:1;stroke:none;stroke-width:1;stroke-miterlimit:4;stroke-dasharray:none;stroke-dashoffset:0;stroke-opacity:1" />
    </clipPath>
    <clipPath
       clipPathUnits="userSpaceOnUse"
       id="clipPath4180">
      <circle
         r="1095.5322"
         cy="1160.8953"
         cx="401.38065"
         id="circle4182"
         style="opacity:1;fill:#6ea748;fill-opacity:1;stroke:none;stroke-width:1;stroke-miterlimit:4;stroke-dasharray:none;stroke-dashoffset:0;stroke-opacity:1" />
    </clipPath>
    <clipPath
       clipPathUnits="userSpaceOnUse"
       id="clipPath4231">
      <circle
         r="1182.8572"
         cy="1069.505"
         cx="382.85715"
         id="circle4233"
         style="opacity:1;fill:#6ea748;fill-opacity:1;stroke:none;stroke-width:1;stroke-miterlimit:4;stroke-dasharray:none;stroke-dashoffset:0;stroke-opacity:1" />
    </clipPath>
    <clipPath
       clipPathUnits="userSpaceOnUse"
       id="clipPath4237">
      <circle
         inkscape:export-ydpi="90"
         inkscape:export-xdpi="90"
         inkscape:export-filename="/home/keidaroo/デスクトップ/drawings/planet/png/planetGreen"
         transform="matrix(0.99994224,-0.01074752,0.01074752,0.99994224,0,0)"
         r="336.98795"
         cy="558.5376"
         cx="503.91528"
         id="circle4239"
         style="opacity:1;fill:#6ea748;fill-opacity:1;stroke:none;stroke-width:1;stroke-miterlimit:4;stroke-dasharray:none;stroke-dashoffset:0;stroke-opacity:1" />
    </clipPath>
    <clipPath
       clipPathUnits="userSpaceOnUse"
       id="clipPath4254">
      <rect
         style="opacity:1;fill:#bcd123;fill-opacity:1;stroke:none;stroke-width:1.20000005;stroke-miterlimit:4;stroke-dasharray:none;stroke-dashoffset:0;stroke-opacity:1"
         id="rect4256"
         width="1234.2856"
         height="371.42856"
         x="-134.28571"
         y="563.79071"
         ry="27.675301" />
    </clipPath>
  </defs>
  <sodipodi:namedview
     id="base"
     pagecolor="#303030"
     bordercolor="#666666"
     borderopacity="1.0"
     inkscape:pageopacity="0"
     inkscape:pageshadow="2"
     inkscape:zoom="0.49497476"
     inkscape:cx="648.10263"
     inkscape:cy="540.76835"
     inkscape:document-units="px"
     inkscape:current-layer="layer1"
     showgrid="false"
     showborder="true"
     inkscape:window-width="2495"
     inkscape:window-height="1056"
     inkscape:window-x="65"
     inkscape:window-y="24"
     inkscape:window-maximized="1"
     units="px" />
  <metadata
     id="metadata7">
    <rdf:RDF>
      <cc:Work
         rdf:about="">
        <dc:format>image/svg+xml</dc:format>
        <dc:type
           rdf:resource="http://purl.org/dc/dcmitype/StillImage" />
        <dc:title></dc:title>
      </cc:Work>
    </rdf:RDF>
  </metadata>
  <g
     inkscape:label="レイヤー 1"
     inkscape:groupmode="layer"
     id="layer1"
     transform="translate(0,-52.362161)">
    <path
       style="opacity:1;fill:#467c62;fill-opacity:1;stroke:none;stroke-width:64.41400146;stroke-miterlimit:4;stroke-dasharray:none;stroke-dashoffset:0;stroke-opacity:1"
       d="M 473.56752,478.0659 A 99.809156,453.58175 75.818835 0 0 60.355149,685.88918 99.809156,453.58175 75.818835 0 0 526.43406,670.59779 99.809156,453.58175 75.818835 0 0 939.64468,462.77457 99.809156,453.58175 75.818835 0 0 473.56752,478.0659 Z m 4.95184,18.03384 A 81.111405,368.61 75.818835 0 1 857.28455,483.67298 81.111405,368.61 75.818835 0 1 521.48212,652.5636 81.111405,368.61 75.818835 0 1 142.71694,664.99035 81.111405,368.61 75.818835 0 1 478.51936,496.09974 Z"
       id="path4154"
       inkscape:connector-curvature="0" />
    <circle
       style="opacity:1;fill:#84a765;fill-opacity:1;stroke:none;stroke-width:1;stroke-miterlimit:4;stroke-dasharray:none;stroke-dashoffset:0;stroke-opacity:1"
       id="path4136"
       cx="338.48996"
       cy="665.84308"
       r="282.4397"
       transform="matrix(0.96426098,-0.26495425,0.26495425,0.96426098,0,0)"
       inkscape:export-filename="/home/keidaroo/デスクトップ/drawings/planet/png/planetGreen"
       inkscape:export-xdpi="90"
       inkscape:export-ydpi="90" />
    <rect
       style="opacity:1;fill:#76955a;fill-opacity:1;stroke:none;stroke-width:1;stroke-miterlimit:4;stroke-dasharray:none;stroke-dashoffset:0;stroke-opacity:1"
       id="rect4138"
       width="2731.4285"
       height="194.28572"
       x="-954.28571"
       y="309.50507"
       ry="97.14286"
       clip-path="url(#clipPath4148)"
       transform="matrix(0.23024383,-0.06326512,0.06326512,0.23024383,346.99773,330.33675)"
       inkscape:export-filename="/home/keidaroo/デスクトップ/drawings/planet/png/planetGreen"
       inkscape:export-xdpi="90"
       inkscape:export-ydpi="90" />
    <rect
       style="opacity:1;fill:#749f50;fill-opacity:1;stroke:none;stroke-width:1;stroke-miterlimit:4;stroke-dasharray:none;stroke-dashoffset:0;stroke-opacity:1"
       id="rect4140"
       width="2902.8572"
       height="291.42856"
       x="-1085.7142"
       y="852.36218"
       ry="145.71428"
       clip-path="url(#clipPath4154)"
       transform="matrix(0.23024383,-0.06326512,0.06326512,0.23024383,346.99773,330.33675)"
       inkscape:export-filename="/home/keidaroo/デスクトップ/drawings/planet/png/planetGreen"
       inkscape:export-xdpi="90"
       inkscape:export-ydpi="90" />
    <rect
       style="opacity:1;fill:#98b77c;fill-opacity:1;stroke:none;stroke-width:1;stroke-miterlimit:4;stroke-dasharray:none;stroke-dashoffset:0;stroke-opacity:1"
       id="rect4142"
       width="2777.1428"
       height="171.42857"
       x="-1005.7143"
       y="1218.0765"
       ry="85.714287"
       clip-path="url(#clipPath4180)"
       transform="matrix(0.24859659,-0.068308,0.068308,0.24859659,323.73031,291.18506)"
       inkscape:export-filename="/home/keidaroo/デスクトップ/drawings/planet/png/planetGreen"
       inkscape:export-xdpi="90"
       inkscape:export-ydpi="90" />
    <rect
       style="opacity:1;fill:#849e71;fill-opacity:1;stroke:none;stroke-width:1;stroke-miterlimit:4;stroke-dasharray:none;stroke-dashoffset:0;stroke-opacity:1"
       id="rect4144"
       width="2388.5715"
       height="234.28572"
       x="-748.57141"
       y="1698.0765"
       ry="85.714302"
       clip-path="url(#clipPath4166)"
       transform="matrix(0.23024383,-0.06326512,0.06326512,0.23024383,346.99773,330.33675)"
       inkscape:export-filename="/home/keidaroo/デスクトップ/drawings/planet/png/planetGreen"
       inkscape:export-xdpi="90"
       inkscape:export-ydpi="90" />
    <rect
       style="opacity:1;fill:#76955a;fill-opacity:1;stroke:none;stroke-width:1;stroke-miterlimit:4;stroke-dasharray:none;stroke-dashoffset:0;stroke-opacity:1"
       id="rect4170"
       width="2291.4285"
       height="97.14286"
       x="-754.28571"
       y="1938.0765"
       ry="48.57143"
       clip-path="url(#clipPath4174)"
       transform="matrix(0.23166487,-0.06365558,0.06365558,0.23166487,345.09972,325.32068)"
       inkscape:export-filename="/home/keidaroo/デスクトップ/drawings/planet/png/planetGreen"
       inkscape:export-xdpi="90"
       inkscape:export-ydpi="90" />
    <path
       style="opacity:1;fill:#000000;fill-opacity:0.30449829;stroke:none;stroke-width:1;stroke-miterlimit:4;stroke-dasharray:none;stroke-dashoffset:0;stroke-opacity:1"
       clip-path="none"
       d="m 427.97711,280.01674 a 282.4397,282.4397 0 0 0 -12.96952,4.06235 282.4397,282.4397 0 0 1 337.7823,199.59541 282.4397,282.4397 0 0 1 -184.54263,343.11651 282.4397,282.4397 0 0 0 9.39694,-2.08349 282.4397,282.4397 0 0 0 197.51214,-347.17878 282.4397,282.4397 0 0 0 -347.17923,-197.512 z"
       id="circle4188"
       inkscape:connector-curvature="0"
       inkscape:export-filename="/home/keidaroo/デスクトップ/drawings/planet/png/planetGreen"
       inkscape:export-xdpi="90"
       inkscape:export-ydpi="90" />
    <path
       inkscape:connector-curvature="0"
       id="path4233"
       d="M 498.92301,411.68116 A 541.42853,141.40828 0 0 0 -42.506693,553.08924 541.42853,141.40828 0 0 0 498.92301,694.49783 541.42853,141.40828 0 0 0 1040.3508,553.08924 541.42853,141.40828 0 0 0 498.92301,411.68116 Z m 0,26.49052 A 440,114.91756 0 0 1 938.92303,553.08924 440,114.91756 0 0 1 498.92301,668.0068 440,114.91756 0 0 1 58.923007,553.08924 440,114.91756 0 0 1 498.92301,438.17168 Z"
       style="opacity:1;fill:#467c62;fill-opacity:1;stroke:none;stroke-width:64.41400146;stroke-miterlimit:4;stroke-dasharray:none;stroke-dashoffset:0;stroke-opacity:1"
       clip-path="url(#clipPath4254)"
       transform="matrix(0.81200862,-0.20604247,0.18692862,0.68076568,-8.5172642,300.60683)" />
  </g>
</svg>
